<svg xmlns="http://www.w3.org/2000/svg" width="32" height="32" viewBox="0 0 256 256"><path fill="#059669" d="M232 220a12 12 0 0 1-12 12h-32a12 12 0 0 1-12-12v-56a12 12 0 0 1 12-12h32a12 12 0 0 1 0 24h-20v4h16a12 12 0 0 1 0 24h-16v4h20a12 12 0 0 1 12 12ZM80.4 152.8a12.1 12.1 0 0 0-15.6 6.8L54 187.2l-10.8-27.6a12 12 0 1 0-22.4 8.8l22 56a12.1 12.1 0 0 0 22.4 0l22-56a12.1 12.1 0 0 0-6.8-15.6ZM32 124V44a20.1 20.1 0 0 1 20-20h104a12.3 12.3 0 0 1 8.5 3.5l56 56A12.3 12.3 0 0 1 224 92v32a12 12 0 0 1-24 0v-12h-52a12 12 0 0 1-12-12V48H56v76a12 12 0 0 1-24 0Zm128-67v31h31Zm-12 95a12 12 0 0 0-12 12v36a8 8 0 0 1-16 0v-36a12 12 0 0 0-24 0v36a32 32 0 0 0 64 0v-36a12 12 0 0 0-12-12Z"/></svg>